<svg width="246" height="892" viewBox="0 0 246 892" fill="none" xmlns="http://www.w3.org/2000/svg">
<path d="M143.144 571.031V723.543H132.144V571.031L115.004 547.644L136.109 499L133.73 543.652L138.262 564.907L142.794 543.652L140.414 499L161.519 547.644L143.144 571.031Z" fill="#F5E79B"/>
<path d="M123.01 687.721C118.591 687.721 115.01 691.302 115.01 695.721V697.762C115.01 702.159 118.558 705.728 122.948 705.762H122.166V891.094H154.831V705.762H154.358C158.748 705.728 162.296 702.159 162.296 697.762V695.721C162.296 691.302 158.715 687.721 154.296 687.721H123.01Z" fill="#FFD600"/>
<path d="M220 629.438C234.805 626.63 246 613.622 246 598C246 580.327 231.673 566 214 566C196.327 566 182 580.327 182 598C182 613.622 193.195 626.63 208 629.438V697H220V629.438Z" fill="#F5E79B"/>
<path d="M199.188 687.178C194.769 687.178 191.188 690.759 191.188 695.178V697.219C191.188 701.617 194.736 705.185 199.125 705.219H198.344V890.552H231.009V705.219H230.536C234.926 705.185 238.474 701.617 238.474 697.219V695.178C238.474 690.759 234.892 687.178 230.474 687.178H199.188Z" fill="#FFD600"/>
<path d="M16 0L16 891" stroke="#F5E79B" stroke-width="5"/>
<rect y="630.014" width="53.3106" height="31.5358" transform="rotate(-90 0 630.014)" fill="#FFD600"/>
<rect y="708.853" width="53.3106" height="31.5358" transform="rotate(-90 0 708.853)" fill="#FFD600"/>
<rect y="787.692" width="53.3106" height="31.5358" transform="rotate(-90 0 787.692)" fill="#FFD600"/>
<rect y="866.532" width="53.3106" height="31.5358" transform="rotate(-90 0 866.532)" fill="#FFD600"/>
<rect y="551.174" width="53.3106" height="31.5358" transform="rotate(-90 0 551.174)" fill="#FFD600"/>
<rect y="472.863" width="53.3106" height="31.5358" transform="rotate(-90 0 472.863)" fill="#FFD600"/>
<rect y="394.553" width="53.3106" height="31.5358" transform="rotate(-90 0 394.553)" fill="#FFD600"/>
<rect y="316.242" width="53.3106" height="31.5358" transform="rotate(-90 0 316.242)" fill="#FFD600"/>
<rect y="237.932" width="53.3106" height="31.5358" transform="rotate(-90 0 237.932)" fill="#FFD600"/>
<rect y="159.621" width="53.3106" height="31.5358" transform="rotate(-90 0 159.621)" fill="#FFD600"/>
<rect y="81.3105" width="53.3106" height="31.5358" transform="rotate(-90 0 81.3105)" fill="#FFD600"/>
<path d="M68 0L68 891" stroke="#F5E79B" stroke-width="5"/>
<rect x="51.8086" y="551.174" width="53.3106" height="31.5358" transform="rotate(-90 51.8086 551.174)" fill="#FFD600"/>
<rect x="52" y="472.863" width="53.3106" height="31.5358" transform="rotate(-90 52 472.863)" fill="#FFD600"/>
<rect x="52.1914" y="394.553" width="53.3106" height="31.5358" transform="rotate(-90 52.1914 394.553)" fill="#FFD600"/>
<rect x="52.3828" y="316.242" width="53.3106" height="31.5358" transform="rotate(-90 52.3828 316.242)" fill="#FFD600"/>
<rect x="52.5742" y="237.932" width="53.3106" height="31.5358" transform="rotate(-90 52.5742 237.932)" fill="#FFD600"/>
<rect x="52.7656" y="159.621" width="53.3106" height="31.5358" transform="rotate(-90 52.7656 159.621)" fill="#FFD600"/>
<rect x="52.957" y="81.3105" width="53.3106" height="31.5358" transform="rotate(-90 52.957 81.3105)" fill="#FFD600"/>
<rect x="51.8086" y="630.014" width="53.3106" height="31.5358" transform="rotate(-90 51.8086 630.014)" fill="#FFD600"/>
<rect x="51.8086" y="708.853" width="53.3106" height="31.5358" transform="rotate(-90 51.8086 708.853)" fill="#FFD600"/>
<rect x="51.8086" y="787.692" width="53.3106" height="31.5358" transform="rotate(-90 51.8086 787.692)" fill="#FFD600"/>
<rect x="51.8086" y="866.532" width="53.3106" height="31.5358" transform="rotate(-90 51.8086 866.532)" fill="#FFD600"/>
</svg>
