<svg width="91" height="281" viewBox="0 0 91 281" fill="none" xmlns="http://www.w3.org/2000/svg">
<rect x="37" y="60" width="11" height="155" fill="#F5E79B"/>
<path d="M7.63638 52.5274L48.3613 67.7769L21.5597 39.3844L0.386435 -0.000194453L7.63638 52.5274Z" fill="#F5E79B"/>
<path d="M78.6411 54.6631L36.7099 66.1888L65.956 40.3213L90.5849 3.00017L78.6411 54.6631Z" fill="#F5E79B"/>
<path fill-rule="evenodd" clip-rule="evenodd" d="M27.8672 179.178C23.4489 179.178 19.8672 182.759 19.8672 187.178V189.219C19.8672 193.617 23.4154 197.185 27.805 197.219H27.0238V382.552H59.6887V197.219H59.2158C63.6055 197.185 67.1536 193.617 67.1536 189.219V187.178C67.1536 182.759 63.5719 179.178 59.1536 179.178H27.8672Z" fill="#FFD600"/>
</svg>
