<svg width="49" height="291" viewBox="0 0 49 291" fill="none" xmlns="http://www.w3.org/2000/svg">
<rect x="18" y="70" width="11" height="155" fill="#F5E79B"/>
<path d="M0.860389 49.1019L27.728 83.2953L19.5862 45.1093L21.9656 0.457446L0.860389 49.1019Z" fill="#F5E79B"/>
<path d="M47.3759 49.1019L20.5083 83.2953L28.6501 45.1093L26.2707 0.457446L47.3759 49.1019Z" fill="#F5E79B"/>
<path fill-rule="evenodd" clip-rule="evenodd" d="M8.86719 189.177C4.44891 189.177 0.867188 192.759 0.867188 197.177V199.218C0.867188 203.616 4.41535 207.185 8.80501 207.218H8.02376V392.551H40.6887V207.218H40.2158C44.6055 207.185 48.1536 203.616 48.1536 199.218V197.177C48.1536 192.759 44.5719 189.177 40.1536 189.177H8.86719Z" fill="#FFD600"/>
</svg>