<svg width="84" height="883" viewBox="0 0 84 883" fill="none" xmlns="http://www.w3.org/2000/svg">
<path d="M15.7676 398V882.3" stroke="#F5E79B" stroke-width="5"/>
<rect y="504.621" width="53.3106" height="31.5358" transform="rotate(-90 0 504.621)" fill="#FFD600"/>
<rect y="583.461" width="53.3106" height="31.5358" transform="rotate(-90 0 583.461)" fill="#FFD600"/>
<rect y="662.3" width="53.3106" height="31.5358" transform="rotate(-90 0 662.3)" fill="#FFD600"/>
<rect y="741.14" width="53.3106" height="31.5358" transform="rotate(-90 0 741.14)" fill="#FFD600"/>
<rect y="819.979" width="53.3106" height="31.5358" transform="rotate(-90 0 819.979)" fill="#FFD600"/>
<path d="M15.7676 0V484.3" stroke="#F5E79B" stroke-width="5"/>
<rect y="106.621" width="53.3106" height="31.5358" transform="rotate(-90 0 106.621)" fill="#FFD600"/>
<rect y="185.461" width="53.3106" height="31.5358" transform="rotate(-90 0 185.461)" fill="#FFD600"/>
<rect y="264.3" width="53.3106" height="31.5358" transform="rotate(-90 0 264.3)" fill="#FFD600"/>
<rect y="343.14" width="53.3106" height="31.5358" transform="rotate(-90 0 343.14)" fill="#FFD600"/>
<rect y="421.979" width="53.3106" height="31.5358" transform="rotate(-90 0 421.979)" fill="#FFD600"/>
<path d="M67.5762 398V882.3" stroke="#F5E79B" stroke-width="5"/>
<rect x="51.8086" y="504.621" width="53.3106" height="31.5358" transform="rotate(-90 51.8086 504.621)" fill="#FFD600"/>
<rect x="51.8086" y="583.461" width="53.3106" height="31.5358" transform="rotate(-90 51.8086 583.461)" fill="#FFD600"/>
<rect x="51.8086" y="662.3" width="53.3106" height="31.5358" transform="rotate(-90 51.8086 662.3)" fill="#FFD600"/>
<rect x="51.8086" y="741.14" width="53.3106" height="31.5358" transform="rotate(-90 51.8086 741.14)" fill="#FFD600"/>
<rect x="51.8086" y="819.979" width="53.3106" height="31.5358" transform="rotate(-90 51.8086 819.979)" fill="#FFD600"/>
<path d="M67.5762 0V484.3" stroke="#F5E79B" stroke-width="5"/>
<rect x="51.8086" y="106.621" width="53.3106" height="31.5358" transform="rotate(-90 51.8086 106.621)" fill="#FFD600"/>
<rect x="51.8086" y="185.461" width="53.3106" height="31.5358" transform="rotate(-90 51.8086 185.461)" fill="#FFD600"/>
<rect x="51.8086" y="264.3" width="53.3106" height="31.5358" transform="rotate(-90 51.8086 264.3)" fill="#FFD600"/>
<rect x="51.8086" y="343.14" width="53.3106" height="31.5358" transform="rotate(-90 51.8086 343.14)" fill="#FFD600"/>
<rect x="51.8086" y="421.979" width="53.3106" height="31.5358" transform="rotate(-90 51.8086 421.979)" fill="#FFD600"/>
</svg>