<svg width="371" height="198" viewBox="0 0 371 198" fill="none" xmlns="http://www.w3.org/2000/svg">
<path d="M0.5 198V125.5H52.5V22.5H227.5" stroke="#FFD600"/>
<path d="M64.2159 11.0625L64.0966 14.0625H63.0568V12H62.2216V11.0625H64.2159ZM54.0568 3.27273H55.1136V11.0284H58.1818V3.27273H59.2386V11.0284H62.3068V3.27273H63.3636V12H54.0568V3.27273ZM66.6918 10.517L69.8452 5.45455H71.0043V12H69.9986V6.9375L66.8622 12H65.6861V5.45455H66.6918V10.517ZM72.8462 12V5.45455H77.994V12H76.9883V6.39205H73.8519V12H72.8462ZM84.9783 5.45455V11.0625H85.8988V14.1136H84.8931V12H79.8306V5.45455H80.8363V11.0625H83.9727V5.45455H84.9783ZM88.3171 7.82386H90.1921C90.9592 7.82386 91.5458 8.01847 91.9521 8.40767C92.3583 8.79687 92.5614 9.28977 92.5614 9.88636C92.5614 10.2784 92.4705 10.6349 92.2887 10.956C92.1069 11.2741 91.8398 11.5284 91.4876 11.7188C91.1353 11.9062 90.7035 12 90.1921 12H87.4478V5.45455H88.4535V11.0625H90.1921C90.5898 11.0625 90.9165 10.9574 91.1722 10.7472C91.4279 10.5369 91.5558 10.267 91.5558 9.9375C91.5558 9.59091 91.4279 9.30824 91.1722 9.08949C90.9165 8.87074 90.5898 8.76136 90.1921 8.76136H88.3171V7.82386ZM93.6012 12V5.45455H94.6069V12H93.6012ZM97.1808 12.0682C96.9705 12.0682 96.7901 11.9929 96.6396 11.8423C96.489 11.6918 96.4137 11.5114 96.4137 11.3011C96.4137 11.0909 96.489 10.9105 96.6396 10.7599C96.7901 10.6094 96.9705 10.5341 97.1808 10.5341C97.391 10.5341 97.5714 10.6094 97.7219 10.7599C97.8725 10.9105 97.9478 11.0909 97.9478 11.3011C97.9478 11.4403 97.9123 11.5682 97.8413 11.6847C97.7731 11.8011 97.6808 11.8949 97.5643 11.9659C97.4506 12.0341 97.3228 12.0682 97.1808 12.0682ZM102.514 14.1136V11.0625H103.076C103.27 10.8864 103.451 10.6378 103.622 10.3168C103.795 9.9929 103.941 9.56108 104.061 9.02131C104.183 8.47869 104.264 7.78977 104.304 6.95455L104.491 3.27273H109.673V11.0625H110.679V14.0966H109.673V12H103.52V14.1136H102.514ZM104.338 11.0625H108.667V4.21023H105.446L105.309 6.95455C105.275 7.59091 105.216 8.16761 105.13 8.68466C105.045 9.19886 104.936 9.65483 104.802 10.0526C104.669 10.4474 104.514 10.7841 104.338 11.0625ZM111.56 12V11.0625H111.798C111.994 11.0625 112.158 11.0241 112.288 10.9474C112.419 10.8679 112.524 10.7301 112.604 10.5341C112.686 10.3352 112.749 10.0597 112.791 9.70739C112.837 9.35227 112.869 8.90057 112.889 8.35227L113.009 5.45455H117.372V12H116.366V6.39205H113.963L113.861 8.72727C113.838 9.2642 113.79 9.73722 113.716 10.1463C113.645 10.5526 113.536 10.8935 113.388 11.169C113.243 11.4446 113.05 11.652 112.808 11.7912C112.567 11.9304 112.264 12 111.901 12H111.56ZM123.155 12V6.375H121.416C121.024 6.375 120.716 6.46591 120.491 6.64773C120.267 6.82955 120.155 7.07955 120.155 7.39773C120.155 7.71023 120.256 7.95597 120.457 8.13494C120.662 8.31392 120.942 8.40341 121.297 8.40341H123.411V9.34091H121.297C120.854 9.34091 120.472 9.26278 120.151 9.10653C119.83 8.95028 119.582 8.72727 119.409 8.4375C119.236 8.14489 119.149 7.7983 119.149 7.39773C119.149 6.99432 119.24 6.64773 119.422 6.35795C119.604 6.06818 119.864 5.84517 120.202 5.68892C120.543 5.53267 120.947 5.45455 121.416 5.45455H124.109V12H123.155ZM118.791 12L120.649 8.74432H121.74L119.882 12H118.791ZM129.978 14.4545C129.808 14.4545 129.656 14.4403 129.522 14.4119C129.389 14.3864 129.297 14.3608 129.245 14.3352L129.501 13.4489C129.745 13.5114 129.961 13.5341 130.149 13.517C130.336 13.5 130.502 13.4162 130.647 13.2656C130.795 13.1179 130.93 12.8778 131.052 12.5455L131.24 12.0341L128.819 5.45455H129.91L131.717 10.6705H131.785L133.592 5.45455H134.683L131.904 12.9545C131.779 13.2926 131.625 13.5724 131.44 13.794C131.255 14.0185 131.041 14.1847 130.797 14.2926C130.555 14.4006 130.282 14.4545 129.978 14.4545ZM134.761 13.875V11.0625H135.306C135.44 10.9233 135.555 10.7727 135.651 10.6108C135.748 10.4489 135.832 10.2571 135.903 10.0355C135.977 9.81108 136.039 9.53835 136.09 9.21733C136.141 8.89347 136.187 8.50284 136.227 8.04545L136.448 5.45455H140.607V11.0625H141.613V13.875H140.607V12H135.766V13.875H134.761ZM136.448 11.0625H139.602V6.39205H137.386L137.215 8.04545C137.144 8.73011 137.056 9.32812 136.951 9.83949C136.846 10.3509 136.678 10.7585 136.448 11.0625ZM144.874 12.1534C144.459 12.1534 144.083 12.0753 143.745 11.919C143.407 11.7599 143.138 11.5312 142.939 11.233C142.74 10.9318 142.641 10.5682 142.641 10.142C142.641 9.76705 142.715 9.46307 142.863 9.23011C143.01 8.99432 143.208 8.80966 143.455 8.67614C143.702 8.54261 143.975 8.44318 144.273 8.37784C144.574 8.30966 144.877 8.25568 145.181 8.21591C145.578 8.16477 145.901 8.12642 146.148 8.10085C146.398 8.07244 146.58 8.02557 146.694 7.96023C146.81 7.89489 146.868 7.78125 146.868 7.61932V7.58523C146.868 7.16477 146.753 6.83807 146.523 6.60511C146.296 6.37216 145.951 6.25568 145.488 6.25568C145.007 6.25568 144.631 6.3608 144.358 6.57102C144.086 6.78125 143.894 7.00568 143.783 7.24432L142.828 6.90341C142.999 6.50568 143.226 6.19602 143.51 5.97443C143.797 5.75 144.11 5.59375 144.448 5.50568C144.789 5.41477 145.124 5.36932 145.453 5.36932C145.664 5.36932 145.905 5.39489 146.178 5.44602C146.453 5.49432 146.719 5.59517 146.975 5.74858C147.233 5.90199 147.448 6.13352 147.618 6.44318C147.789 6.75284 147.874 7.16761 147.874 7.6875V12H146.868V11.1136H146.817C146.749 11.2557 146.635 11.4077 146.476 11.5696C146.317 11.7315 146.105 11.8693 145.841 11.983C145.577 12.0966 145.255 12.1534 144.874 12.1534ZM145.027 11.25C145.425 11.25 145.76 11.1719 146.033 11.0156C146.309 10.8594 146.516 10.6577 146.655 10.4105C146.797 10.1634 146.868 9.90341 146.868 9.63068V8.71023C146.826 8.76136 146.732 8.80824 146.587 8.85085C146.445 8.89062 146.28 8.92614 146.093 8.95739C145.908 8.9858 145.728 9.01136 145.551 9.03409C145.378 9.05398 145.238 9.07102 145.13 9.08523C144.868 9.11932 144.624 9.17472 144.397 9.25142C144.172 9.32528 143.99 9.4375 143.851 9.58807C143.715 9.7358 143.647 9.9375 143.647 10.1932C143.647 10.5426 143.776 10.8068 144.034 10.9858C144.296 11.1619 144.627 11.25 145.027 11.25ZM149.13 12V11.0625H149.369C149.565 11.0625 149.728 11.0241 149.859 10.9474C149.989 10.8679 150.094 10.7301 150.174 10.5341C150.256 10.3352 150.319 10.0597 150.362 9.70739C150.407 9.35227 150.44 8.90057 150.46 8.35227L150.579 5.45455H154.942V12H153.937V6.39205H151.533L151.431 8.72727C151.408 9.2642 151.36 9.73722 151.286 10.1463C151.215 10.5526 151.106 10.8935 150.958 11.169C150.813 11.4446 150.62 11.652 150.379 11.7912C150.137 11.9304 149.835 12 149.471 12H149.13ZM159.532 12.1364C158.901 12.1364 158.357 11.9972 157.9 11.7188C157.445 11.4375 157.094 11.0455 156.847 10.5426C156.603 10.0369 156.481 9.44886 156.481 8.77841C156.481 8.10795 156.603 7.51705 156.847 7.00568C157.094 6.49148 157.438 6.09091 157.879 5.80398C158.322 5.5142 158.839 5.36932 159.43 5.36932C159.771 5.36932 160.107 5.42614 160.44 5.53977C160.772 5.65341 161.075 5.83807 161.347 6.09375C161.62 6.34659 161.837 6.68182 161.999 7.09943C162.161 7.51705 162.242 8.03125 162.242 8.64205V9.06818H157.197V8.19886H161.219C161.219 7.82955 161.146 7.5 160.998 7.21023C160.853 6.92045 160.646 6.69176 160.376 6.52415C160.109 6.35653 159.793 6.27273 159.43 6.27273C159.029 6.27273 158.683 6.37216 158.39 6.57102C158.1 6.76705 157.877 7.02273 157.721 7.33807C157.565 7.65341 157.487 7.99148 157.487 8.35227V8.93182C157.487 9.42614 157.572 9.84517 157.742 10.1889C157.915 10.5298 158.156 10.7898 158.462 10.9688C158.769 11.1449 159.126 11.233 159.532 11.233C159.796 11.233 160.035 11.196 160.248 11.1222C160.464 11.0455 160.65 10.9318 160.806 10.7812C160.962 10.6278 161.083 10.4375 161.168 10.2102L162.14 10.483C162.038 10.8125 161.866 11.1023 161.624 11.3523C161.383 11.5994 161.085 11.7926 160.729 11.9318C160.374 12.0682 159.975 12.1364 159.532 12.1364ZM168.153 8.26705V9.20455H164.539V8.26705H168.153ZM164.778 5.45455V12H163.772V5.45455H164.778ZM168.92 5.45455V12H167.914V5.45455H168.92ZM171.762 10.517L174.915 5.45455H176.075V12H175.069V6.9375L171.933 12H170.756V5.45455H171.762V10.517ZM181.854 12V6.375H180.115C179.723 6.375 179.415 6.46591 179.191 6.64773C178.966 6.82955 178.854 7.07955 178.854 7.39773C178.854 7.71023 178.955 7.95597 179.157 8.13494C179.361 8.31392 179.641 8.40341 179.996 8.40341H182.11V9.34091H179.996C179.553 9.34091 179.171 9.26278 178.85 9.10653C178.529 8.95028 178.282 8.72727 178.108 8.4375C177.935 8.14489 177.848 7.7983 177.848 7.39773C177.848 6.99432 177.939 6.64773 178.121 6.35795C178.303 6.06818 178.563 5.84517 178.901 5.68892C179.242 5.53267 179.647 5.45455 180.115 5.45455H182.809V12H181.854ZM177.49 12L179.348 8.74432H180.439L178.581 12H177.49ZM187.621 10.3295H188.695C188.717 10.625 188.851 10.8494 189.095 11.0028C189.342 11.1562 189.663 11.233 190.058 11.233C190.462 11.233 190.807 11.1506 191.094 10.9858C191.381 10.8182 191.524 10.5483 191.524 10.1761C191.524 9.95739 191.47 9.76705 191.362 9.60511C191.254 9.44034 191.102 9.3125 190.906 9.22159C190.71 9.13068 190.479 9.08523 190.212 9.08523H189.087V8.18182H190.212C190.612 8.18182 190.908 8.09091 191.098 7.90909C191.291 7.72727 191.388 7.5 191.388 7.22727C191.388 6.93466 191.284 6.70028 191.077 6.52415C190.869 6.34517 190.575 6.25568 190.195 6.25568C189.811 6.25568 189.491 6.34233 189.236 6.51562C188.98 6.68608 188.845 6.90625 188.831 7.17614H187.774C187.786 6.82386 187.893 6.51278 188.098 6.2429C188.303 5.97017 188.581 5.7571 188.933 5.60369C189.286 5.44744 189.689 5.36932 190.143 5.36932C190.604 5.36932 191.003 5.45028 191.341 5.61222C191.682 5.77131 191.945 5.98864 192.129 6.2642C192.317 6.53693 192.411 6.84659 192.411 7.19318C192.411 7.5625 192.307 7.8608 192.099 8.08807C191.892 8.31534 191.632 8.47727 191.32 8.57386V8.64205C191.567 8.65909 191.781 8.73864 191.963 8.88068C192.148 9.01989 192.291 9.20312 192.393 9.4304C192.496 9.65483 192.547 9.90341 192.547 10.1761C192.547 10.5739 192.44 10.9205 192.227 11.2159C192.014 11.5085 191.722 11.7358 191.349 11.8977C190.977 12.0568 190.553 12.1364 190.075 12.1364C189.612 12.1364 189.197 12.0611 188.831 11.9105C188.464 11.7571 188.173 11.5455 187.957 11.2756C187.744 11.0028 187.632 10.6875 187.621 10.3295ZM194.607 14.4545C194.437 14.4545 194.285 14.4403 194.151 14.4119C194.018 14.3864 193.925 14.3608 193.874 14.3352L194.13 13.4489C194.374 13.5114 194.59 13.5341 194.778 13.517C194.965 13.5 195.131 13.4162 195.276 13.2656C195.424 13.1179 195.559 12.8778 195.681 12.5455L195.869 12.0341L193.448 5.45455H194.539L196.346 10.6705H196.414L198.221 5.45455H199.312L196.533 12.9545C196.408 13.2926 196.254 13.5724 196.069 13.794C195.884 14.0185 195.67 14.1847 195.425 14.2926C195.184 14.4006 194.911 14.4545 194.607 14.4545ZM205.497 3L206.009 3.61364C205.81 3.80682 205.58 3.94176 205.318 4.01847C205.057 4.09517 204.761 4.14205 204.432 4.15909C204.102 4.17614 203.736 4.19318 203.332 4.21023C202.878 4.22727 202.501 4.33807 202.203 4.54261C201.905 4.74716 201.675 5.04261 201.513 5.42898C201.351 5.81534 201.247 6.28977 201.202 6.85227H201.287C201.509 6.44318 201.815 6.14205 202.207 5.94886C202.599 5.75568 203.02 5.65909 203.469 5.65909C203.98 5.65909 204.44 5.77841 204.849 6.01705C205.259 6.25568 205.582 6.60938 205.821 7.07812C206.06 7.54688 206.179 8.125 206.179 8.8125C206.179 9.49716 206.057 10.0881 205.812 10.5852C205.571 11.0824 205.232 11.4659 204.794 11.7358C204.359 12.0028 203.849 12.1364 203.264 12.1364C202.679 12.1364 202.166 11.9986 201.726 11.723C201.286 11.4446 200.943 11.0327 200.699 10.4872C200.455 9.93892 200.332 9.26136 200.332 8.45455V7.75568C200.332 6.2983 200.58 5.19318 201.074 4.44034C201.571 3.6875 202.318 3.2983 203.315 3.27273C203.668 3.26136 203.982 3.25852 204.257 3.2642C204.533 3.26989 204.773 3.2571 204.977 3.22585C205.182 3.1946 205.355 3.11932 205.497 3ZM203.264 11.233C203.659 11.233 203.999 11.1335 204.283 10.9347C204.57 10.7358 204.79 10.456 204.943 10.0952C205.097 9.73153 205.173 9.30398 205.173 8.8125C205.173 8.33523 205.095 7.92898 204.939 7.59375C204.786 7.25852 204.565 7.00284 204.278 6.8267C203.991 6.65057 203.648 6.5625 203.247 6.5625C202.955 6.5625 202.692 6.61222 202.459 6.71165C202.226 6.81108 202.027 6.95739 201.862 7.15057C201.697 7.34375 201.57 7.57955 201.479 7.85795C201.391 8.13636 201.344 8.45455 201.338 8.8125C201.338 9.54545 201.51 10.1321 201.854 10.5724C202.197 11.0128 202.668 11.233 203.264 11.233ZM210.376 12.1364C209.786 12.1364 209.267 11.9957 208.821 11.7145C208.378 11.4332 208.031 11.0398 207.781 10.5341C207.534 10.0284 207.411 9.4375 207.411 8.76136C207.411 8.07955 207.534 7.48437 207.781 6.97585C208.031 6.46733 208.378 6.07244 208.821 5.79119C209.267 5.50994 209.786 5.36932 210.376 5.36932C210.967 5.36932 211.484 5.50994 211.928 5.79119C212.374 6.07244 212.72 6.46733 212.967 6.97585C213.217 7.48437 213.342 8.07955 213.342 8.76136C213.342 9.4375 213.217 10.0284 212.967 10.5341C212.72 11.0398 212.374 11.4332 211.928 11.7145C211.484 11.9957 210.967 12.1364 210.376 12.1364ZM210.376 11.233C210.825 11.233 211.195 11.1179 211.484 10.8878C211.774 10.6577 211.989 10.3551 212.128 9.98011C212.267 9.60511 212.337 9.19886 212.337 8.76136C212.337 8.32386 212.267 7.91619 212.128 7.53835C211.989 7.16051 211.774 6.85511 211.484 6.62216C211.195 6.3892 210.825 6.27273 210.376 6.27273C209.928 6.27273 209.558 6.3892 209.268 6.62216C208.979 6.85511 208.764 7.16051 208.625 7.53835C208.486 7.91619 208.416 8.32386 208.416 8.76136C208.416 9.19886 208.486 9.60511 208.625 9.98011C208.764 10.3551 208.979 10.6577 209.268 10.8878C209.558 11.1179 209.928 11.233 210.376 11.233ZM214.877 12V5.45455H217.554C218.258 5.45455 218.818 5.61364 219.233 5.93182C219.647 6.25 219.855 6.67045 219.855 7.19318C219.855 7.59091 219.737 7.89915 219.501 8.1179C219.265 8.33381 218.963 8.48011 218.593 8.55682C218.835 8.59091 219.069 8.67614 219.297 8.8125C219.527 8.94886 219.717 9.13636 219.868 9.375C220.018 9.6108 220.093 9.90057 220.093 10.2443C220.093 10.5795 220.008 10.8793 219.838 11.1435C219.667 11.4077 219.423 11.6165 219.105 11.7699C218.787 11.9233 218.406 12 217.963 12H214.877ZM215.832 11.0795H217.963C218.309 11.0795 218.581 10.9972 218.777 10.8324C218.973 10.6676 219.071 10.4432 219.071 10.1591C219.071 9.82102 218.973 9.5554 218.777 9.36222C218.581 9.16619 218.309 9.06818 217.963 9.06818H215.832V11.0795ZM215.832 8.19886H217.554C217.824 8.19886 218.055 8.16193 218.248 8.08807C218.441 8.01136 218.589 7.90341 218.691 7.7642C218.797 7.62216 218.849 7.45455 218.849 7.26136C218.849 6.9858 218.734 6.76989 218.504 6.61364C218.274 6.45455 217.957 6.375 217.554 6.375H215.832V8.19886Z" fill="white"/>
</svg>
