<svg width="319" height="197" viewBox="0 0 319 197" fill="none" xmlns="http://www.w3.org/2000/svg">
<path d="M0 38H281V91.5H209.5V196.5" stroke="#FFD600"/>
<path d="M9.42045 7.63636C9.42045 8.55682 9.25426 9.35227 8.92188 10.0227C8.58949 10.6932 8.13352 11.2102 7.55398 11.5739C6.97443 11.9375 6.3125 12.1193 5.56818 12.1193C4.82386 12.1193 4.16193 11.9375 3.58239 11.5739C3.00284 11.2102 2.54688 10.6932 2.21449 10.0227C1.8821 9.35227 1.71591 8.55682 1.71591 7.63636C1.71591 6.71591 1.8821 5.92045 2.21449 5.25C2.54688 4.57955 3.00284 4.0625 3.58239 3.69886C4.16193 3.33523 4.82386 3.15341 5.56818 3.15341C6.3125 3.15341 6.97443 3.33523 7.55398 3.69886C8.13352 4.0625 8.58949 4.57955 8.92188 5.25C9.25426 5.92045 9.42045 6.71591 9.42045 7.63636ZM8.39773 7.63636C8.39773 6.88068 8.27131 6.2429 8.01847 5.72301C7.76847 5.20312 7.42898 4.80966 7 4.54261C6.57386 4.27557 6.09659 4.14205 5.56818 4.14205C5.03977 4.14205 4.56108 4.27557 4.1321 4.54261C3.70597 4.80966 3.36648 5.20312 3.11364 5.72301C2.86364 6.2429 2.73864 6.88068 2.73864 7.63636C2.73864 8.39205 2.86364 9.02983 3.11364 9.54972C3.36648 10.0696 3.70597 10.4631 4.1321 10.7301C4.56108 10.9972 5.03977 11.1307 5.56818 11.1307C6.09659 11.1307 6.57386 10.9972 7 10.7301C7.42898 10.4631 7.76847 10.0696 8.01847 9.54972C8.27131 9.02983 8.39773 8.39205 8.39773 7.63636ZM11.0611 12V5.45455H16.2088V12H15.2031V6.39205H12.0668V12H11.0611ZM20.7045 12.1364C20.1136 12.1364 19.5952 11.9957 19.1491 11.7145C18.706 11.4332 18.3594 11.0398 18.1094 10.5341C17.8622 10.0284 17.7386 9.4375 17.7386 8.76136C17.7386 8.07955 17.8622 7.48437 18.1094 6.97585C18.3594 6.46733 18.706 6.07244 19.1491 5.79119C19.5952 5.50994 20.1136 5.36932 20.7045 5.36932C21.2955 5.36932 21.8125 5.50994 22.2557 5.79119C22.7017 6.07244 23.0483 6.46733 23.2955 6.97585C23.5455 7.48437 23.6705 8.07955 23.6705 8.76136C23.6705 9.4375 23.5455 10.0284 23.2955 10.5341C23.0483 11.0398 22.7017 11.4332 22.2557 11.7145C21.8125 11.9957 21.2955 12.1364 20.7045 12.1364ZM20.7045 11.233C21.1534 11.233 21.5227 11.1179 21.8125 10.8878C22.1023 10.6577 22.3168 10.3551 22.456 9.98011C22.5952 9.60511 22.6648 9.19886 22.6648 8.76136C22.6648 8.32386 22.5952 7.91619 22.456 7.53835C22.3168 7.16051 22.1023 6.85511 21.8125 6.62216C21.5227 6.3892 21.1534 6.27273 20.7045 6.27273C20.2557 6.27273 19.8864 6.3892 19.5966 6.62216C19.3068 6.85511 19.0923 7.16051 18.9531 7.53835C18.8139 7.91619 18.7443 8.32386 18.7443 8.76136C18.7443 9.19886 18.8139 9.60511 18.9531 9.98011C19.0923 10.3551 19.3068 10.6577 19.5966 10.8878C19.8864 11.1179 20.2557 11.233 20.7045 11.233ZM24.6261 12V11.0625H24.8647C25.0607 11.0625 25.2241 11.0241 25.3548 10.9474C25.4854 10.8679 25.5906 10.7301 25.6701 10.5341C25.7525 10.3352 25.815 10.0597 25.8576 9.70739C25.9031 9.35227 25.9357 8.90057 25.9556 8.35227L26.0749 5.45455H30.4386V12H29.4329V6.39205H27.0295L26.9272 8.72727C26.9045 9.2642 26.8562 9.73722 26.7823 10.1463C26.7113 10.5526 26.6019 10.8935 26.4542 11.169C26.3093 11.4446 26.1161 11.652 25.8746 11.7912C25.6332 11.9304 25.3306 12 24.967 12H24.6261ZM34.2099 12.1534C33.7951 12.1534 33.4187 12.0753 33.0806 11.919C32.7425 11.7599 32.4741 11.5312 32.2752 11.233C32.0763 10.9318 31.9769 10.5682 31.9769 10.142C31.9769 9.76705 32.0508 9.46307 32.1985 9.23011C32.3462 8.99432 32.5437 8.80966 32.7908 8.67614C33.038 8.54261 33.3107 8.44318 33.609 8.37784C33.9102 8.30966 34.2127 8.25568 34.5167 8.21591C34.9144 8.16477 35.2369 8.12642 35.484 8.10085C35.734 8.07244 35.9158 8.02557 36.0295 7.96023C36.146 7.89489 36.2042 7.78125 36.2042 7.61932V7.58523C36.2042 7.16477 36.0891 6.83807 35.859 6.60511C35.6317 6.37216 35.2866 6.25568 34.8235 6.25568C34.3434 6.25568 33.967 6.3608 33.6942 6.57102C33.4215 6.78125 33.2298 7.00568 33.119 7.24432L32.1644 6.90341C32.3349 6.50568 32.5621 6.19602 32.8462 5.97443C33.1332 5.75 33.4457 5.59375 33.7837 5.50568C34.1246 5.41477 34.4599 5.36932 34.7894 5.36932C34.9996 5.36932 35.2411 5.39489 35.5138 5.44602C35.7894 5.49432 36.055 5.59517 36.3107 5.74858C36.5692 5.90199 36.7837 6.13352 36.9542 6.44318C37.1246 6.75284 37.2099 7.16761 37.2099 7.6875V12H36.2042V11.1136H36.1531C36.0849 11.2557 35.9712 11.4077 35.8121 11.5696C35.6531 11.7315 35.4414 11.8693 35.1772 11.983C34.913 12.0966 34.5906 12.1534 34.2099 12.1534ZM34.3633 11.25C34.761 11.25 35.0962 11.1719 35.369 11.0156C35.6445 10.8594 35.8519 10.6577 35.9911 10.4105C36.1332 10.1634 36.2042 9.90341 36.2042 9.63068V8.71023C36.1616 8.76136 36.0678 8.80824 35.9229 8.85085C35.7809 8.89062 35.6161 8.92614 35.4286 8.95739C35.244 8.9858 35.0636 9.01136 34.8874 9.03409C34.7141 9.05398 34.5735 9.07102 34.4656 9.08523C34.2042 9.11932 33.9599 9.17472 33.7326 9.25142C33.5082 9.32528 33.3263 9.4375 33.1871 9.58807C33.0508 9.7358 32.9826 9.9375 32.9826 10.1932C32.9826 10.5426 33.1119 10.8068 33.3704 10.9858C33.6317 11.1619 33.9627 11.25 34.3633 11.25ZM41.7045 12.1364C41.0909 12.1364 40.5625 11.9915 40.1193 11.7017C39.6761 11.4119 39.3352 11.0128 39.0966 10.5043C38.858 9.99574 38.7386 9.41477 38.7386 8.76136C38.7386 8.09659 38.8608 7.50994 39.1051 7.00142C39.3523 6.49006 39.696 6.09091 40.1364 5.80398C40.5795 5.5142 41.0966 5.36932 41.6875 5.36932C42.1477 5.36932 42.5625 5.45455 42.9318 5.625C43.3011 5.79545 43.6037 6.03409 43.8395 6.34091C44.0753 6.64773 44.2216 7.00568 44.2784 7.41477H43.2727C43.196 7.11648 43.0256 6.85227 42.7614 6.62216C42.5 6.3892 42.1477 6.27273 41.7045 6.27273C41.3125 6.27273 40.9688 6.375 40.6733 6.57955C40.3807 6.78125 40.152 7.06676 39.9872 7.43608C39.8253 7.80256 39.7443 8.23295 39.7443 8.72727C39.7443 9.23295 39.8239 9.6733 39.983 10.0483C40.1449 10.4233 40.3722 10.7145 40.6648 10.9219C40.9602 11.1293 41.3068 11.233 41.7045 11.233C41.9659 11.233 42.2031 11.1875 42.4162 11.0966C42.6293 11.0057 42.8097 10.875 42.9574 10.7045C43.1051 10.5341 43.2102 10.3295 43.2727 10.0909H44.2784C44.2216 10.4773 44.081 10.8253 43.8565 11.1349C43.6349 11.4418 43.3409 11.6861 42.9744 11.8679C42.6108 12.0469 42.1875 12.1364 41.7045 12.1364ZM45.7486 12V5.45455H46.7543V8.30114H47.419L49.7713 5.45455H51.0668L48.4247 8.60795L51.1009 12H49.8054L47.6577 9.23864H46.7543V12H45.7486ZM53.1996 10.517L56.353 5.45455H57.5121V12H56.5064V6.9375L53.37 12H52.1939V5.45455H53.1996V10.517ZM59.354 12V5.45455H62.0302C62.7347 5.45455 63.2944 5.61364 63.7092 5.93182C64.1239 6.25 64.3313 6.67045 64.3313 7.19318C64.3313 7.59091 64.2134 7.89915 63.9776 8.1179C63.7418 8.33381 63.4393 8.48011 63.07 8.55682C63.3114 8.59091 63.5458 8.67614 63.7731 8.8125C64.0032 8.94886 64.1935 9.13636 64.3441 9.375C64.4947 9.6108 64.57 9.90057 64.57 10.2443C64.57 10.5795 64.4847 10.8793 64.3143 11.1435C64.1438 11.4077 63.8995 11.6165 63.5813 11.7699C63.2631 11.9233 62.8825 12 62.4393 12H59.354ZM60.3086 11.0795H62.4393C62.7859 11.0795 63.0572 10.9972 63.2532 10.8324C63.4492 10.6676 63.5472 10.4432 63.5472 10.1591C63.5472 9.82102 63.4492 9.5554 63.2532 9.36222C63.0572 9.16619 62.7859 9.06818 62.4393 9.06818H60.3086V11.0795ZM60.3086 8.19886H62.0302C62.3001 8.19886 62.5316 8.16193 62.7248 8.08807C62.918 8.01136 63.0657 7.90341 63.168 7.7642C63.2731 7.62216 63.3256 7.45455 63.3256 7.26136C63.3256 6.9858 63.2106 6.76989 62.9805 6.61364C62.7504 6.45455 62.4336 6.375 62.0302 6.375H60.3086V8.19886ZM68.0185 12.1534C67.6037 12.1534 67.2273 12.0753 66.8892 11.919C66.5511 11.7599 66.2827 11.5312 66.0838 11.233C65.8849 10.9318 65.7855 10.5682 65.7855 10.142C65.7855 9.76705 65.8594 9.46307 66.0071 9.23011C66.1548 8.99432 66.3523 8.80966 66.5994 8.67614C66.8466 8.54261 67.1193 8.44318 67.4176 8.37784C67.7188 8.30966 68.0213 8.25568 68.3253 8.21591C68.723 8.16477 69.0455 8.12642 69.2926 8.10085C69.5426 8.07244 69.7244 8.02557 69.8381 7.96023C69.9545 7.89489 70.0128 7.78125 70.0128 7.61932V7.58523C70.0128 7.16477 69.8977 6.83807 69.6676 6.60511C69.4403 6.37216 69.0952 6.25568 68.6321 6.25568C68.152 6.25568 67.7756 6.3608 67.5028 6.57102C67.2301 6.78125 67.0384 7.00568 66.9276 7.24432L65.973 6.90341C66.1435 6.50568 66.3707 6.19602 66.6548 5.97443C66.9418 5.75 67.2543 5.59375 67.5923 5.50568C67.9332 5.41477 68.2685 5.36932 68.598 5.36932C68.8082 5.36932 69.0497 5.39489 69.3224 5.44602C69.598 5.49432 69.8636 5.59517 70.1193 5.74858C70.3778 5.90199 70.5923 6.13352 70.7628 6.44318C70.9332 6.75284 71.0185 7.16761 71.0185 7.6875V12H70.0128V11.1136H69.9616C69.8935 11.2557 69.7798 11.4077 69.6207 11.5696C69.4616 11.7315 69.25 11.8693 68.9858 11.983C68.7216 12.0966 68.3991 12.1534 68.0185 12.1534ZM68.1719 11.25C68.5696 11.25 68.9048 11.1719 69.1776 11.0156C69.4531 10.8594 69.6605 10.6577 69.7997 10.4105C69.9418 10.1634 70.0128 9.90341 70.0128 9.63068V8.71023C69.9702 8.76136 69.8764 8.80824 69.7315 8.85085C69.5895 8.89062 69.4247 8.92614 69.2372 8.95739C69.0526 8.9858 68.8722 9.01136 68.696 9.03409C68.5227 9.05398 68.3821 9.07102 68.2741 9.08523C68.0128 9.11932 67.7685 9.17472 67.5412 9.25142C67.3168 9.32528 67.1349 9.4375 66.9957 9.58807C66.8594 9.7358 66.7912 9.9375 66.7912 10.1932C66.7912 10.5426 66.9205 10.8068 67.179 10.9858C67.4403 11.1619 67.7713 11.25 68.1719 11.25ZM71.9634 6.39205V5.45455H77.2816V6.39205H75.1339V12H74.1282V6.39205H71.9634ZM81.1531 12.1364C80.5224 12.1364 79.9783 11.9972 79.521 11.7188C79.0664 11.4375 78.7156 11.0455 78.4684 10.5426C78.2241 10.0369 78.1019 9.44886 78.1019 8.77841C78.1019 8.10795 78.2241 7.51705 78.4684 7.00568C78.7156 6.49148 79.0593 6.09091 79.4996 5.80398C79.9428 5.5142 80.4599 5.36932 81.0508 5.36932C81.3917 5.36932 81.7283 5.42614 82.0607 5.53977C82.3931 5.65341 82.6957 5.83807 82.9684 6.09375C83.2411 6.34659 83.4585 6.68182 83.6204 7.09943C83.7823 7.51705 83.8633 8.03125 83.8633 8.64205V9.06818H78.8178V8.19886H82.8406C82.8406 7.82955 82.7667 7.5 82.619 7.21023C82.4741 6.92045 82.2667 6.69176 81.9968 6.52415C81.7298 6.35653 81.4144 6.27273 81.0508 6.27273C80.6502 6.27273 80.3036 6.37216 80.011 6.57102C79.7212 6.76705 79.4982 7.02273 79.342 7.33807C79.1857 7.65341 79.1076 7.99148 79.1076 8.35227V8.93182C79.1076 9.42614 79.1928 9.84517 79.3633 10.1889C79.5366 10.5298 79.7766 10.7898 80.0835 10.9688C80.3903 11.1449 80.7468 11.233 81.1531 11.233C81.4173 11.233 81.6559 11.196 81.869 11.1222C82.0849 11.0455 82.271 10.9318 82.4272 10.7812C82.5835 10.6278 82.7042 10.4375 82.7894 10.2102L83.761 10.483C83.6587 10.8125 83.4869 11.1023 83.2454 11.3523C83.0039 11.5994 82.7056 11.7926 82.3505 11.9318C81.9954 12.0682 81.5962 12.1364 81.1531 12.1364ZM84.8136 12V11.0625H85.0522C85.2482 11.0625 85.4116 11.0241 85.5423 10.9474C85.6729 10.8679 85.7781 10.7301 85.8576 10.5341C85.94 10.3352 86.0025 10.0597 86.0451 9.70739C86.0906 9.35227 86.1232 8.90057 86.1431 8.35227L86.2624 5.45455H90.6261V12H89.6204V6.39205H87.217L87.1147 8.72727C87.092 9.2642 87.0437 9.73722 86.9698 10.1463C86.8988 10.5526 86.7894 10.8935 86.6417 11.169C86.4968 11.4446 86.3036 11.652 86.0621 11.7912C85.8207 11.9304 85.5181 12 85.1545 12H84.8136ZM93.3406 7.82386H95.2156C95.9826 7.82386 96.5692 8.01847 96.9755 8.40767C97.3817 8.79687 97.5849 9.28977 97.5849 9.88636C97.5849 10.2784 97.494 10.6349 97.3121 10.956C97.1303 11.2741 96.8633 11.5284 96.511 11.7188C96.1587 11.9062 95.7269 12 95.2156 12H92.4712V5.45455H93.4769V11.0625H95.2156C95.6133 11.0625 95.94 10.9574 96.1957 10.7472C96.4513 10.5369 96.5792 10.267 96.5792 9.9375C96.5792 9.59091 96.4513 9.30824 96.1957 9.08949C95.94 8.87074 95.6133 8.76136 95.2156 8.76136H93.3406V7.82386ZM102.491 12V5.45455H107.638V12H106.633V6.39205H103.496V12H102.491ZM112.134 12.1364C111.543 12.1364 111.025 11.9957 110.579 11.7145C110.136 11.4332 109.789 11.0398 109.539 10.5341C109.292 10.0284 109.168 9.4375 109.168 8.76136C109.168 8.07955 109.292 7.48437 109.539 6.97585C109.789 6.46733 110.136 6.07244 110.579 5.79119C111.025 5.50994 111.543 5.36932 112.134 5.36932C112.725 5.36932 113.242 5.50994 113.685 5.79119C114.131 6.07244 114.478 6.46733 114.725 6.97585C114.975 7.48437 115.1 8.07955 115.1 8.76136C115.1 9.4375 114.975 10.0284 114.725 10.5341C114.478 11.0398 114.131 11.4332 113.685 11.7145C113.242 11.9957 112.725 12.1364 112.134 12.1364ZM112.134 11.233C112.583 11.233 112.952 11.1179 113.242 10.8878C113.532 10.6577 113.746 10.3551 113.886 9.98011C114.025 9.60511 114.094 9.19886 114.094 8.76136C114.094 8.32386 114.025 7.91619 113.886 7.53835C113.746 7.16051 113.532 6.85511 113.242 6.62216C112.952 6.3892 112.583 6.27273 112.134 6.27273C111.685 6.27273 111.316 6.3892 111.026 6.62216C110.737 6.85511 110.522 7.16051 110.383 7.53835C110.244 7.91619 110.174 8.32386 110.174 8.76136C110.174 9.19886 110.244 9.60511 110.383 9.98011C110.522 10.3551 110.737 10.6577 111.026 10.8878C111.316 11.1179 111.685 11.233 112.134 11.233ZM116.056 12V11.0625H116.294C116.49 11.0625 116.654 11.0241 116.784 10.9474C116.915 10.8679 117.02 10.7301 117.1 10.5341C117.182 10.3352 117.245 10.0597 117.287 9.70739C117.333 9.35227 117.365 8.90057 117.385 8.35227L117.505 5.45455H121.868V12H120.863V6.39205H118.459L118.357 8.72727C118.334 9.2642 118.286 9.73722 118.212 10.1463C118.141 10.5526 118.032 10.8935 117.884 11.169C117.739 11.4446 117.546 11.652 117.304 11.7912C117.063 11.9304 116.76 12 116.397 12H116.056ZM126.373 12.1364C125.782 12.1364 125.263 11.9957 124.817 11.7145C124.374 11.4332 124.027 11.0398 123.777 10.5341C123.53 10.0284 123.407 9.4375 123.407 8.76136C123.407 8.07955 123.53 7.48437 123.777 6.97585C124.027 6.46733 124.374 6.07244 124.817 5.79119C125.263 5.50994 125.782 5.36932 126.373 5.36932C126.963 5.36932 127.48 5.50994 127.924 5.79119C128.37 6.07244 128.716 6.46733 128.963 6.97585C129.213 7.48437 129.338 8.07955 129.338 8.76136C129.338 9.4375 129.213 10.0284 128.963 10.5341C128.716 11.0398 128.37 11.4332 127.924 11.7145C127.48 11.9957 126.963 12.1364 126.373 12.1364ZM126.373 11.233C126.821 11.233 127.191 11.1179 127.48 10.8878C127.77 10.6577 127.985 10.3551 128.124 9.98011C128.263 9.60511 128.333 9.19886 128.333 8.76136C128.333 8.32386 128.263 7.91619 128.124 7.53835C127.985 7.16051 127.77 6.85511 127.48 6.62216C127.191 6.3892 126.821 6.27273 126.373 6.27273C125.924 6.27273 125.554 6.3892 125.265 6.62216C124.975 6.85511 124.76 7.16051 124.621 7.53835C124.482 7.91619 124.412 8.32386 124.412 8.76136C124.412 9.19886 124.482 9.60511 124.621 9.98011C124.76 10.3551 124.975 10.6577 125.265 10.8878C125.554 11.1179 125.924 11.233 126.373 11.233ZM133.533 12.1364C132.919 12.1364 132.391 11.9915 131.947 11.7017C131.504 11.4119 131.163 11.0128 130.925 10.5043C130.686 9.99574 130.567 9.41477 130.567 8.76136C130.567 8.09659 130.689 7.50994 130.933 7.00142C131.18 6.49006 131.524 6.09091 131.964 5.80398C132.408 5.5142 132.925 5.36932 133.516 5.36932C133.976 5.36932 134.391 5.45455 134.76 5.625C135.129 5.79545 135.432 6.03409 135.668 6.34091C135.903 6.64773 136.05 7.00568 136.107 7.41477H135.101C135.024 7.11648 134.854 6.85227 134.589 6.62216C134.328 6.3892 133.976 6.27273 133.533 6.27273C133.141 6.27273 132.797 6.375 132.501 6.57955C132.209 6.78125 131.98 7.06676 131.815 7.43608C131.653 7.80256 131.572 8.23295 131.572 8.72727C131.572 9.23295 131.652 9.6733 131.811 10.0483C131.973 10.4233 132.2 10.7145 132.493 10.9219C132.788 11.1293 133.135 11.233 133.533 11.233C133.794 11.233 134.031 11.1875 134.244 11.0966C134.457 11.0057 134.638 10.875 134.786 10.7045C134.933 10.5341 135.038 10.3295 135.101 10.0909H136.107C136.05 10.4773 135.909 10.8253 135.685 11.1349C135.463 11.4418 135.169 11.6861 134.803 11.8679C134.439 12.0469 134.016 12.1364 133.533 12.1364ZM137.061 6.39205V5.45455H142.379V6.39205H140.232V12H139.226V6.39205H137.061ZM144.852 10.517L148.005 5.45455H149.164V12H148.159V6.9375L145.022 12H143.846V5.45455H144.852V10.517ZM154.381 14.4545V5.45455H155.353V6.49432H155.472C155.546 6.38068 155.648 6.2358 155.779 6.05966C155.913 5.88068 156.103 5.72159 156.35 5.58239C156.6 5.44034 156.938 5.36932 157.364 5.36932C157.915 5.36932 158.401 5.5071 158.822 5.78267C159.242 6.05824 159.57 6.44886 159.806 6.95455C160.042 7.46023 160.16 8.05682 160.16 8.74432C160.16 9.4375 160.042 10.0384 159.806 10.5469C159.57 11.0526 159.244 11.4446 158.826 11.723C158.408 11.9986 157.927 12.1364 157.381 12.1364C156.961 12.1364 156.624 12.0668 156.371 11.9276C156.119 11.7855 155.924 11.625 155.788 11.446C155.651 11.2642 155.546 11.1136 155.472 10.9943H155.387V14.4545H154.381ZM155.37 8.72727C155.37 9.22159 155.442 9.65767 155.587 10.0355C155.732 10.4105 155.944 10.7045 156.222 10.9176C156.501 11.1278 156.842 11.233 157.245 11.233C157.665 11.233 158.016 11.1222 158.298 10.9006C158.582 10.6761 158.795 10.375 158.937 9.99716C159.082 9.61648 159.154 9.19318 159.154 8.72727C159.154 8.26705 159.083 7.85227 158.941 7.48295C158.802 7.1108 158.59 6.81676 158.306 6.60085C158.025 6.3821 157.671 6.27273 157.245 6.27273C156.836 6.27273 156.492 6.37642 156.214 6.58381C155.935 6.78835 155.725 7.07528 155.583 7.4446C155.441 7.81108 155.37 8.23864 155.37 8.72727ZM160.838 6.39205V5.45455H166.157V6.39205H164.009V12H163.003V6.39205H160.838ZM169.21 12.1534C168.795 12.1534 168.419 12.0753 168.081 11.919C167.743 11.7599 167.474 11.5312 167.275 11.233C167.076 10.9318 166.977 10.5682 166.977 10.142C166.977 9.76705 167.051 9.46307 167.199 9.23011C167.346 8.99432 167.544 8.80966 167.791 8.67614C168.038 8.54261 168.311 8.44318 168.609 8.37784C168.91 8.30966 169.213 8.25568 169.517 8.21591C169.914 8.16477 170.237 8.12642 170.484 8.10085C170.734 8.07244 170.916 8.02557 171.029 7.96023C171.146 7.89489 171.204 7.78125 171.204 7.61932V7.58523C171.204 7.16477 171.089 6.83807 170.859 6.60511C170.632 6.37216 170.287 6.25568 169.824 6.25568C169.343 6.25568 168.967 6.3608 168.694 6.57102C168.422 6.78125 168.23 7.00568 168.119 7.24432L167.164 6.90341C167.335 6.50568 167.562 6.19602 167.846 5.97443C168.133 5.75 168.446 5.59375 168.784 5.50568C169.125 5.41477 169.46 5.36932 169.789 5.36932C170 5.36932 170.241 5.39489 170.514 5.44602C170.789 5.49432 171.055 5.59517 171.311 5.74858C171.569 5.90199 171.784 6.13352 171.954 6.44318C172.125 6.75284 172.21 7.16761 172.21 7.6875V12H171.204V11.1136H171.153C171.085 11.2557 170.971 11.4077 170.812 11.5696C170.653 11.7315 170.441 11.8693 170.177 11.983C169.913 12.0966 169.591 12.1534 169.21 12.1534ZM169.363 11.25C169.761 11.25 170.096 11.1719 170.369 11.0156C170.645 10.8594 170.852 10.6577 170.991 10.4105C171.133 10.1634 171.204 9.90341 171.204 9.63068V8.71023C171.162 8.76136 171.068 8.80824 170.923 8.85085C170.781 8.89062 170.616 8.92614 170.429 8.95739C170.244 8.9858 170.064 9.01136 169.887 9.03409C169.714 9.05398 169.574 9.07102 169.466 9.08523C169.204 9.11932 168.96 9.17472 168.733 9.25142C168.508 9.32528 168.326 9.4375 168.187 9.58807C168.051 9.7358 167.983 9.9375 167.983 10.1932C167.983 10.5426 168.112 10.8068 168.37 10.9858C168.632 11.1619 168.963 11.25 169.363 11.25ZM174.778 12.0682C174.568 12.0682 174.388 11.9929 174.237 11.8423C174.087 11.6918 174.011 11.5114 174.011 11.3011C174.011 11.0909 174.087 10.9105 174.237 10.7599C174.388 10.6094 174.568 10.5341 174.778 10.5341C174.989 10.5341 175.169 10.6094 175.32 10.7599C175.47 10.9105 175.545 11.0909 175.545 11.3011C175.545 11.4403 175.51 11.5682 175.439 11.6847C175.371 11.8011 175.278 11.8949 175.162 11.9659C175.048 12.0341 174.92 12.0682 174.778 12.0682ZM8.58523 18.2727V27H7.52841V19.2102H3.13068V27H2.07386V18.2727H8.58523ZM10.5806 29.4545V20.4545H11.5522V21.4943H11.6715C11.7454 21.3807 11.8477 21.2358 11.9783 21.0597C12.1119 20.8807 12.3022 20.7216 12.5494 20.5824C12.7994 20.4403 13.1374 20.3693 13.5636 20.3693C14.1147 20.3693 14.6005 20.5071 15.021 20.7827C15.4414 21.0582 15.7695 21.4489 16.0053 21.9545C16.2411 22.4602 16.359 23.0568 16.359 23.7443C16.359 24.4375 16.2411 25.0384 16.0053 25.5469C15.7695 26.0526 15.4428 26.4446 15.0252 26.723C14.6076 26.9986 14.1261 27.1364 13.5806 27.1364C13.1602 27.1364 12.8235 27.0668 12.5707 26.9276C12.3178 26.7855 12.1232 26.625 11.9869 26.446C11.8505 26.2642 11.7454 26.1136 11.6715 25.9943H11.5863V29.4545H10.5806ZM11.5692 23.7273C11.5692 24.2216 11.6417 24.6577 11.7866 25.0355C11.9315 25.4105 12.1431 25.7045 12.4215 25.9176C12.6999 26.1278 13.0408 26.233 13.4442 26.233C13.8647 26.233 14.2156 26.1222 14.4968 25.9006C14.7809 25.6761 14.994 25.375 15.136 24.9972C15.2809 24.6165 15.3533 24.1932 15.3533 23.7273C15.3533 23.267 15.2823 22.8523 15.1403 22.483C15.0011 22.1108 14.7894 21.8168 14.5053 21.6009C14.2241 21.3821 13.8704 21.2727 13.4442 21.2727C13.0352 21.2727 12.6914 21.3764 12.413 21.5838C12.1346 21.7884 11.9244 22.0753 11.7823 22.4446C11.6403 22.8111 11.5692 23.2386 11.5692 23.7273ZM18.8988 25.517L22.0522 20.4545H23.2113V27H22.2056V21.9375L19.0692 27H17.8931V20.4545H18.8988V25.517ZM28.6328 25.6364L30.9169 20.4545H31.8714L29.0419 27H28.2237L25.4453 20.4545H26.3828L28.6328 25.6364ZM26.0589 20.4545V27H25.0533V20.4545H26.0589ZM31.2067 27V20.4545H32.2124V27H31.2067ZM36.7976 27.1364C36.1669 27.1364 35.6229 26.9972 35.1655 26.7188C34.7109 26.4375 34.3601 26.0455 34.1129 25.5426C33.8686 25.0369 33.7464 24.4489 33.7464 23.7784C33.7464 23.108 33.8686 22.517 34.1129 22.0057C34.3601 21.4915 34.7038 21.0909 35.1442 20.804C35.5874 20.5142 36.1044 20.3693 36.6953 20.3693C37.0362 20.3693 37.3729 20.4261 37.7053 20.5398C38.0376 20.6534 38.3402 20.8381 38.6129 21.0938C38.8857 21.3466 39.103 21.6818 39.2649 22.0994C39.4268 22.517 39.5078 23.0312 39.5078 23.642V24.0682H34.4624V23.1989H38.4851C38.4851 22.8295 38.4112 22.5 38.2635 22.2102C38.1186 21.9205 37.9112 21.6918 37.6413 21.5241C37.3743 21.3565 37.0589 21.2727 36.6953 21.2727C36.2947 21.2727 35.9482 21.3722 35.6555 21.571C35.3658 21.767 35.1428 22.0227 34.9865 22.3381C34.8303 22.6534 34.7521 22.9915 34.7521 23.3523V23.9318C34.7521 24.4261 34.8374 24.8452 35.0078 25.1889C35.1811 25.5298 35.4212 25.7898 35.728 25.9688C36.0348 26.1449 36.3913 26.233 36.7976 26.233C37.0618 26.233 37.3004 26.196 37.5135 26.1222C37.7294 26.0455 37.9155 25.9318 38.0717 25.7812C38.228 25.6278 38.3487 25.4375 38.4339 25.2102L39.4055 25.483C39.3033 25.8125 39.1314 26.1023 38.8899 26.3523C38.6484 26.5994 38.3501 26.7926 37.995 26.9318C37.6399 27.0682 37.2408 27.1364 36.7976 27.1364ZM45.4183 23.267V24.2045H41.8047V23.267H45.4183ZM42.0433 20.4545V27H41.0376V20.4545H42.0433ZM46.1854 20.4545V27H45.1797V20.4545H46.1854ZM51.9595 27V21.375H50.2209C49.8288 21.375 49.5206 21.4659 49.2962 21.6477C49.0717 21.8295 48.9595 22.0795 48.9595 22.3977C48.9595 22.7102 49.0604 22.956 49.2621 23.1349C49.4666 23.3139 49.7464 23.4034 50.1016 23.4034H52.2152V24.3409H50.1016C49.6584 24.3409 49.2763 24.2628 48.9553 24.1065C48.6342 23.9503 48.3871 23.7273 48.2138 23.4375C48.0405 23.1449 47.9538 22.7983 47.9538 22.3977C47.9538 21.9943 48.0447 21.6477 48.2266 21.358C48.4084 21.0682 48.6683 20.8452 49.0064 20.6889C49.3473 20.5327 49.7521 20.4545 50.2209 20.4545H52.9141V27H51.9595ZM47.5959 27L49.4538 23.7443H50.5447L48.6868 27H47.5959ZM57.5046 27.1364C56.8739 27.1364 56.3299 26.9972 55.8725 26.7188C55.418 26.4375 55.0671 26.0455 54.82 25.5426C54.5756 25.0369 54.4535 24.4489 54.4535 23.7784C54.4535 23.108 54.5756 22.517 54.82 22.0057C55.0671 21.4915 55.4109 21.0909 55.8512 20.804C56.2944 20.5142 56.8114 20.3693 57.4023 20.3693C57.7433 20.3693 58.0799 20.4261 58.4123 20.5398C58.7447 20.6534 59.0472 20.8381 59.32 21.0938C59.5927 21.3466 59.81 21.6818 59.9719 22.0994C60.1339 22.517 60.2148 23.0312 60.2148 23.642V24.0682H55.1694V23.1989H59.1921C59.1921 22.8295 59.1183 22.5 58.9705 22.2102C58.8256 21.9205 58.6183 21.6918 58.3484 21.5241C58.0813 21.3565 57.766 21.2727 57.4023 21.2727C57.0018 21.2727 56.6552 21.3722 56.3626 21.571C56.0728 21.767 55.8498 22.0227 55.6935 22.3381C55.5373 22.6534 55.4592 22.9915 55.4592 23.3523V23.9318C55.4592 24.4261 55.5444 24.8452 55.7148 25.1889C55.8881 25.5298 56.1282 25.7898 56.435 25.9688C56.7418 26.1449 57.0984 26.233 57.5046 26.233C57.7688 26.233 58.0075 26.196 58.2205 26.1222C58.4364 26.0455 58.6225 25.9318 58.7788 25.7812C58.935 25.6278 59.0558 25.4375 59.141 25.2102L60.1126 25.483C60.0103 25.8125 59.8384 26.1023 59.5969 26.3523C59.3555 26.5994 59.0572 26.7926 58.7021 26.9318C58.3469 27.0682 57.9478 27.1364 57.5046 27.1364ZM61.1353 21.392V20.4545H66.4535V21.392H64.3058V27H63.3001V21.392H61.1353ZM70.2397 27.1364C69.6261 27.1364 69.0977 26.9915 68.6545 26.7017C68.2113 26.4119 67.8704 26.0128 67.6317 25.5043C67.3931 24.9957 67.2738 24.4148 67.2738 23.7614C67.2738 23.0966 67.396 22.5099 67.6403 22.0014C67.8874 21.4901 68.2312 21.0909 68.6715 20.804C69.1147 20.5142 69.6317 20.3693 70.2227 20.3693C70.6829 20.3693 71.0977 20.4545 71.467 20.625C71.8363 20.7955 72.1388 21.0341 72.3746 21.3409C72.6104 21.6477 72.7567 22.0057 72.8136 22.4148H71.8079C71.7312 22.1165 71.5607 21.8523 71.2965 21.6222C71.0352 21.3892 70.6829 21.2727 70.2397 21.2727C69.8477 21.2727 69.5039 21.375 69.2085 21.5795C68.9158 21.7812 68.6871 22.0668 68.5224 22.4361C68.3604 22.8026 68.2795 23.233 68.2795 23.7273C68.2795 24.233 68.359 24.6733 68.5181 25.0483C68.68 25.4233 68.9073 25.7145 69.1999 25.9219C69.4954 26.1293 69.842 26.233 70.2397 26.233C70.5011 26.233 70.7383 26.1875 70.9513 26.0966C71.1644 26.0057 71.3448 25.875 71.4925 25.7045C71.6403 25.5341 71.7454 25.3295 71.8079 25.0909H72.8136C72.7567 25.4773 72.6161 25.8253 72.3917 26.1349C72.1701 26.4418 71.8761 26.6861 71.5096 26.8679C71.146 27.0469 70.7227 27.1364 70.2397 27.1364ZM78.2212 27V21.375H76.4826C76.0906 21.375 75.7823 21.4659 75.5579 21.6477C75.3335 21.8295 75.2212 22.0795 75.2212 22.3977C75.2212 22.7102 75.3221 22.956 75.5238 23.1349C75.7283 23.3139 76.0082 23.4034 76.3633 23.4034H78.4769V24.3409H76.3633C75.9201 24.3409 75.538 24.2628 75.217 24.1065C74.896 23.9503 74.6488 23.7273 74.4755 23.4375C74.3022 23.1449 74.2156 22.7983 74.2156 22.3977C74.2156 21.9943 74.3065 21.6477 74.4883 21.358C74.6701 21.0682 74.93 20.8452 75.2681 20.6889C75.609 20.5327 76.0138 20.4545 76.4826 20.4545H79.1758V27H78.2212ZM73.8576 27L75.7156 23.7443H76.8065L74.9485 27H73.8576ZM83.6982 28.875V26.0625H84.2436C84.3771 25.9233 84.4922 25.7727 84.5888 25.6108C84.6854 25.4489 84.7692 25.2571 84.8402 25.0355C84.9141 24.8111 84.9766 24.5384 85.0277 24.2173C85.0788 23.8935 85.1243 23.5028 85.1641 23.0455L85.3857 20.4545H89.5447V26.0625H90.5504V28.875H89.5447V27H84.7038V28.875H83.6982ZM85.3857 26.0625H88.5391V21.392H86.3232L86.1527 23.0455C86.0817 23.7301 85.9936 24.3281 85.8885 24.8395C85.7834 25.3509 85.6158 25.7585 85.3857 26.0625ZM91.3058 27V26.0625H91.5444C91.7404 26.0625 91.9038 26.0241 92.0344 25.9474C92.1651 25.8679 92.2702 25.7301 92.3498 25.5341C92.4322 25.3352 92.4947 25.0597 92.5373 24.7074C92.5827 24.3523 92.6154 23.9006 92.6353 23.3523L92.7546 20.4545H97.1183V27H96.1126V21.392H93.7092L93.6069 23.7273C93.5842 24.2642 93.5359 24.7372 93.462 25.1463C93.391 25.5526 93.2816 25.8935 93.1339 26.169C92.989 26.4446 92.7958 26.652 92.5543 26.7912C92.3129 26.9304 92.0103 27 91.6467 27H91.3058ZM102.901 27V21.375H101.162C100.77 21.375 100.462 21.4659 100.238 21.6477C100.013 21.8295 99.9009 22.0795 99.9009 22.3977C99.9009 22.7102 100.002 22.956 100.203 23.1349C100.408 23.3139 100.688 23.4034 101.043 23.4034H103.157V24.3409H101.043C100.6 24.3409 100.218 24.2628 99.8967 24.1065C99.5756 23.9503 99.3285 23.7273 99.1552 23.4375C98.9819 23.1449 98.8952 22.7983 98.8952 22.3977C98.8952 21.9943 98.9862 21.6477 99.168 21.358C99.3498 21.0682 99.6097 20.8452 99.9478 20.6889C100.289 20.5327 100.694 20.4545 101.162 20.4545H103.855V27H102.901ZM98.5373 27L100.395 23.7443H101.486L99.6282 27H98.5373ZM116.031 25.6364L118.315 20.4545H119.27L116.44 27H115.622L112.844 20.4545H113.781L116.031 25.6364ZM113.457 20.4545V27H112.452V20.4545H113.457ZM118.605 27V20.4545H119.611V27H118.605ZM124.196 27.1364C123.565 27.1364 123.021 26.9972 122.564 26.7188C122.109 26.4375 121.759 26.0455 121.511 25.5426C121.267 25.0369 121.145 24.4489 121.145 23.7784C121.145 23.108 121.267 22.517 121.511 22.0057C121.759 21.4915 122.102 21.0909 122.543 20.804C122.986 20.5142 123.503 20.3693 124.094 20.3693C124.435 20.3693 124.771 20.4261 125.104 20.5398C125.436 20.6534 125.739 20.8381 126.011 21.0938C126.284 21.3466 126.501 21.6818 126.663 22.0994C126.825 22.517 126.906 23.0312 126.906 23.642V24.0682H121.861V23.1989H125.884C125.884 22.8295 125.81 22.5 125.662 22.2102C125.517 21.9205 125.31 21.6918 125.04 21.5241C124.773 21.3565 124.457 21.2727 124.094 21.2727C123.693 21.2727 123.347 21.3722 123.054 21.571C122.764 21.767 122.541 22.0227 122.385 22.3381C122.229 22.6534 122.151 22.9915 122.151 23.3523V23.9318C122.151 24.4261 122.236 24.8452 122.406 25.1889C122.58 25.5298 122.82 25.7898 123.126 25.9688C123.433 26.1449 123.79 26.233 124.196 26.233C124.46 26.233 124.699 26.196 124.912 26.1222C125.128 26.0455 125.314 25.9318 125.47 25.7812C125.626 25.6278 125.747 25.4375 125.832 25.2102L126.804 25.483C126.702 25.8125 126.53 26.1023 126.288 26.3523C126.047 26.5994 125.749 26.7926 125.393 26.9318C125.038 27.0682 124.639 27.1364 124.196 27.1364ZM131.095 27.1364C130.482 27.1364 129.953 26.9915 129.51 26.7017C129.067 26.4119 128.726 26.0128 128.487 25.5043C128.249 24.9957 128.129 24.4148 128.129 23.7614C128.129 23.0966 128.251 22.5099 128.496 22.0014C128.743 21.4901 129.087 21.0909 129.527 20.804C129.97 20.5142 130.487 20.3693 131.078 20.3693C131.538 20.3693 131.953 20.4545 132.322 20.625C132.692 20.7955 132.994 21.0341 133.23 21.3409C133.466 21.6477 133.612 22.0057 133.669 22.4148H132.663C132.587 22.1165 132.416 21.8523 132.152 21.6222C131.891 21.3892 131.538 21.2727 131.095 21.2727C130.703 21.2727 130.359 21.375 130.064 21.5795C129.771 21.7812 129.543 22.0668 129.378 22.4361C129.216 22.8026 129.135 23.233 129.135 23.7273C129.135 24.233 129.214 24.6733 129.374 25.0483C129.536 25.4233 129.763 25.7145 130.055 25.9219C130.351 26.1293 130.697 26.233 131.095 26.233C131.357 26.233 131.594 26.1875 131.807 26.0966C132.02 26.0057 132.2 25.875 132.348 25.7045C132.496 25.5341 132.601 25.3295 132.663 25.0909H133.669C133.612 25.4773 133.472 25.8253 133.247 26.1349C133.026 26.4418 132.732 26.6861 132.365 26.8679C132.001 27.0469 131.578 27.1364 131.095 27.1364ZM134.624 21.392V20.4545H139.942V21.392H137.794V27H136.788V21.392H134.624ZM145.789 23.267V24.2045H142.176V23.267H145.789ZM142.414 20.4545V27H141.409V20.4545H142.414ZM146.556 20.4545V27H145.551V20.4545H146.556ZM151.052 27.1364C150.461 27.1364 149.943 26.9957 149.497 26.7145C149.054 26.4332 148.707 26.0398 148.457 25.5341C148.21 25.0284 148.086 24.4375 148.086 23.7614C148.086 23.0795 148.21 22.4844 148.457 21.9759C148.707 21.4673 149.054 21.0724 149.497 20.7912C149.943 20.5099 150.461 20.3693 151.052 20.3693C151.643 20.3693 152.16 20.5099 152.603 20.7912C153.049 21.0724 153.396 21.4673 153.643 21.9759C153.893 22.4844 154.018 23.0795 154.018 23.7614C154.018 24.4375 153.893 25.0284 153.643 25.5341C153.396 26.0398 153.049 26.4332 152.603 26.7145C152.16 26.9957 151.643 27.1364 151.052 27.1364ZM151.052 26.233C151.501 26.233 151.87 26.1179 152.16 25.8878C152.45 25.6577 152.664 25.3551 152.804 24.9801C152.943 24.6051 153.012 24.1989 153.012 23.7614C153.012 23.3239 152.943 22.9162 152.804 22.5384C152.664 22.1605 152.45 21.8551 152.16 21.6222C151.87 21.3892 151.501 21.2727 151.052 21.2727C150.603 21.2727 150.234 21.3892 149.944 21.6222C149.654 21.8551 149.44 22.1605 149.301 22.5384C149.162 22.9162 149.092 23.3239 149.092 23.7614C149.092 24.1989 149.162 24.6051 149.301 24.9801C149.44 25.3551 149.654 25.6577 149.944 25.8878C150.234 26.1179 150.603 26.233 151.052 26.233ZM159.593 20.4545V21.392H156.559V27H155.553V20.4545H159.593ZM163.38 27.1364C162.789 27.1364 162.271 26.9957 161.825 26.7145C161.382 26.4332 161.035 26.0398 160.785 25.5341C160.538 25.0284 160.414 24.4375 160.414 23.7614C160.414 23.0795 160.538 22.4844 160.785 21.9759C161.035 21.4673 161.382 21.0724 161.825 20.7912C162.271 20.5099 162.789 20.3693 163.38 20.3693C163.971 20.3693 164.488 20.5099 164.931 20.7912C165.377 21.0724 165.724 21.4673 165.971 21.9759C166.221 22.4844 166.346 23.0795 166.346 23.7614C166.346 24.4375 166.221 25.0284 165.971 25.5341C165.724 26.0398 165.377 26.4332 164.931 26.7145C164.488 26.9957 163.971 27.1364 163.38 27.1364ZM163.38 26.233C163.829 26.233 164.199 26.1179 164.488 25.8878C164.778 25.6577 164.993 25.3551 165.132 24.9801C165.271 24.6051 165.341 24.1989 165.341 23.7614C165.341 23.3239 165.271 22.9162 165.132 22.5384C164.993 22.1605 164.778 21.8551 164.488 21.6222C164.199 21.3892 163.829 21.2727 163.38 21.2727C162.931 21.2727 162.562 21.3892 162.272 21.6222C161.983 21.8551 161.768 22.1605 161.629 22.5384C161.49 22.9162 161.42 23.3239 161.42 23.7614C161.42 24.1989 161.49 24.6051 161.629 24.9801C161.768 25.3551 161.983 25.6577 162.272 25.8878C162.562 26.1179 162.931 26.233 163.38 26.233ZM173.915 27.1364C173.325 27.1364 172.806 26.9957 172.36 26.7145C171.917 26.4332 171.57 26.0398 171.32 25.5341C171.073 25.0284 170.95 24.4375 170.95 23.7614C170.95 23.0795 171.073 22.4844 171.32 21.9759C171.57 21.4673 171.917 21.0724 172.36 20.7912C172.806 20.5099 173.325 20.3693 173.915 20.3693C174.506 20.3693 175.023 20.5099 175.467 20.7912C175.913 21.0724 176.259 21.4673 176.506 21.9759C176.756 22.4844 176.881 23.0795 176.881 23.7614C176.881 24.4375 176.756 25.0284 176.506 25.5341C176.259 26.0398 175.913 26.4332 175.467 26.7145C175.023 26.9957 174.506 27.1364 173.915 27.1364ZM173.915 26.233C174.364 26.233 174.734 26.1179 175.023 25.8878C175.313 25.6577 175.528 25.3551 175.667 24.9801C175.806 24.6051 175.876 24.1989 175.876 23.7614C175.876 23.3239 175.806 22.9162 175.667 22.5384C175.528 22.1605 175.313 21.8551 175.023 21.6222C174.734 21.3892 174.364 21.2727 173.915 21.2727C173.467 21.2727 173.097 21.3892 172.808 21.6222C172.518 21.8551 172.303 22.1605 172.164 22.5384C172.025 22.9162 171.955 23.3239 171.955 23.7614C171.955 24.1989 172.025 24.6051 172.164 24.9801C172.303 25.3551 172.518 25.6577 172.808 25.8878C173.097 26.1179 173.467 26.233 173.915 26.233ZM178.417 29.4545V20.4545H179.388V21.4943H179.507C179.581 21.3807 179.684 21.2358 179.814 21.0597C179.948 20.8807 180.138 20.7216 180.385 20.5824C180.635 20.4403 180.973 20.3693 181.4 20.3693C181.951 20.3693 182.436 20.5071 182.857 20.7827C183.277 21.0582 183.605 21.4489 183.841 21.9545C184.077 22.4602 184.195 23.0568 184.195 23.7443C184.195 24.4375 184.077 25.0384 183.841 25.5469C183.605 26.0526 183.279 26.4446 182.861 26.723C182.444 26.9986 181.962 27.1364 181.417 27.1364C180.996 27.1364 180.659 27.0668 180.407 26.9276C180.154 26.7855 179.959 26.625 179.823 26.446C179.686 26.2642 179.581 26.1136 179.507 25.9943H179.422V29.4545H178.417ZM179.405 23.7273C179.405 24.2216 179.478 24.6577 179.623 25.0355C179.767 25.4105 179.979 25.7045 180.257 25.9176C180.536 26.1278 180.877 26.233 181.28 26.233C181.701 26.233 182.051 26.1222 182.333 25.9006C182.617 25.6761 182.83 25.375 182.972 24.9972C183.117 24.6165 183.189 24.1932 183.189 23.7273C183.189 23.267 183.118 22.8523 182.976 22.483C182.837 22.1108 182.625 21.8168 182.341 21.6009C182.06 21.3821 181.706 21.2727 181.28 21.2727C180.871 21.2727 180.527 21.3764 180.249 21.5838C179.971 21.7884 179.76 22.0753 179.618 22.4446C179.476 22.8111 179.405 23.2386 179.405 23.7273ZM188.388 27.1364C187.797 27.1364 187.279 26.9957 186.833 26.7145C186.39 26.4332 186.043 26.0398 185.793 25.5341C185.546 25.0284 185.422 24.4375 185.422 23.7614C185.422 23.0795 185.546 22.4844 185.793 21.9759C186.043 21.4673 186.39 21.0724 186.833 20.7912C187.279 20.5099 187.797 20.3693 188.388 20.3693C188.979 20.3693 189.496 20.5099 189.939 20.7912C190.385 21.0724 190.732 21.4673 190.979 21.9759C191.229 22.4844 191.354 23.0795 191.354 23.7614C191.354 24.4375 191.229 25.0284 190.979 25.5341C190.732 26.0398 190.385 26.4332 189.939 26.7145C189.496 26.9957 188.979 27.1364 188.388 27.1364ZM188.388 26.233C188.837 26.233 189.206 26.1179 189.496 25.8878C189.786 25.6577 190 25.3551 190.14 24.9801C190.279 24.6051 190.348 24.1989 190.348 23.7614C190.348 23.3239 190.279 22.9162 190.14 22.5384C190 22.1605 189.786 21.8551 189.496 21.6222C189.206 21.3892 188.837 21.2727 188.388 21.2727C187.939 21.2727 187.57 21.3892 187.28 21.6222C186.99 21.8551 186.776 22.1605 186.637 22.5384C186.498 22.9162 186.428 23.3239 186.428 23.7614C186.428 24.1989 186.498 24.6051 186.637 24.9801C186.776 25.3551 186.99 25.6577 187.28 25.8878C187.57 26.1179 187.939 26.233 188.388 26.233ZM192.889 20.4545H193.895V26.0625H196.366V20.4545H197.372V26.0625H199.844V20.4545H200.849V27H192.889V20.4545ZM205.43 27.1364C204.8 27.1364 204.256 26.9972 203.798 26.7188C203.344 26.4375 202.993 26.0455 202.746 25.5426C202.501 25.0369 202.379 24.4489 202.379 23.7784C202.379 23.108 202.501 22.517 202.746 22.0057C202.993 21.4915 203.337 21.0909 203.777 20.804C204.22 20.5142 204.737 20.3693 205.328 20.3693C205.669 20.3693 206.006 20.4261 206.338 20.5398C206.67 20.6534 206.973 20.8381 207.246 21.0938C207.518 21.3466 207.736 21.6818 207.898 22.0994C208.06 22.517 208.141 23.0312 208.141 23.642V24.0682H203.095V23.1989H207.118C207.118 22.8295 207.044 22.5 206.896 22.2102C206.751 21.9205 206.544 21.6918 206.274 21.5241C206.007 21.3565 205.692 21.2727 205.328 21.2727C204.928 21.2727 204.581 21.3722 204.288 21.571C203.999 21.767 203.776 22.0227 203.619 22.3381C203.463 22.6534 203.385 22.9915 203.385 23.3523V23.9318C203.385 24.4261 203.47 24.8452 203.641 25.1889C203.814 25.5298 204.054 25.7898 204.361 25.9688C204.668 26.1449 205.024 26.233 205.43 26.233C205.695 26.233 205.933 26.196 206.146 26.1222C206.362 26.0455 206.548 25.9318 206.705 25.7812C206.861 25.6278 206.982 25.4375 207.067 25.2102L208.038 25.483C207.936 25.8125 207.764 26.1023 207.523 26.3523C207.281 26.5994 206.983 26.7926 206.628 26.9318C206.273 27.0682 205.874 27.1364 205.43 27.1364ZM214.051 23.267V24.2045H210.438V23.267H214.051ZM210.676 20.4545V27H209.67V20.4545H210.676ZM214.818 20.4545V27H213.812V20.4545H214.818ZM217.661 25.517L220.814 20.4545H221.973V27H220.967V21.9375L217.831 27H216.655V20.4545H217.661V25.517ZM227.752 27V21.375H226.014C225.622 21.375 225.314 21.4659 225.089 21.6477C224.865 21.8295 224.752 22.0795 224.752 22.3977C224.752 22.7102 224.853 22.956 225.055 23.1349C225.26 23.3139 225.539 23.4034 225.895 23.4034H228.008V24.3409H225.895C225.451 24.3409 225.069 24.2628 224.748 24.1065C224.427 23.9503 224.18 23.7273 224.007 23.4375C223.833 23.1449 223.747 22.7983 223.747 22.3977C223.747 21.9943 223.838 21.6477 224.02 21.358C224.201 21.0682 224.461 20.8452 224.799 20.6889C225.14 20.5327 225.545 20.4545 226.014 20.4545H228.707V27H227.752ZM223.389 27L225.247 23.7443H226.338L224.48 27H223.389ZM233.519 25.3295H234.593C234.616 25.625 234.749 25.8494 234.994 26.0028C235.241 26.1562 235.562 26.233 235.957 26.233C236.36 26.233 236.705 26.1506 236.992 25.9858C237.279 25.8182 237.423 25.5483 237.423 25.1761C237.423 24.9574 237.369 24.767 237.261 24.6051C237.153 24.4403 237.001 24.3125 236.805 24.2216C236.609 24.1307 236.377 24.0852 236.11 24.0852H234.985V23.1818H236.11C236.511 23.1818 236.806 23.0909 236.996 22.9091C237.19 22.7273 237.286 22.5 237.286 22.2273C237.286 21.9347 237.183 21.7003 236.975 21.5241C236.768 21.3452 236.474 21.2557 236.093 21.2557C235.71 21.2557 235.39 21.3423 235.134 21.5156C234.879 21.6861 234.744 21.9062 234.729 22.1761H233.673C233.684 21.8239 233.792 21.5128 233.996 21.2429C234.201 20.9702 234.479 20.7571 234.832 20.6037C235.184 20.4474 235.587 20.3693 236.042 20.3693C236.502 20.3693 236.901 20.4503 237.239 20.6122C237.58 20.7713 237.843 20.9886 238.028 21.2642C238.215 21.5369 238.309 21.8466 238.309 22.1932C238.309 22.5625 238.205 22.8608 237.998 23.0881C237.79 23.3153 237.531 23.4773 237.218 23.5739V23.642C237.465 23.6591 237.68 23.7386 237.862 23.8807C238.046 24.0199 238.19 24.2031 238.292 24.4304C238.394 24.6548 238.445 24.9034 238.445 25.1761C238.445 25.5739 238.339 25.9205 238.126 26.2159C237.913 26.5085 237.62 26.7358 237.248 26.8977C236.876 27.0568 236.451 27.1364 235.974 27.1364C235.511 27.1364 235.096 27.0611 234.729 26.9105C234.363 26.7571 234.072 26.5455 233.856 26.2756C233.643 26.0028 233.531 25.6875 233.519 25.3295ZM242.517 27.1364C241.926 27.1364 241.408 26.9957 240.962 26.7145C240.518 26.4332 240.172 26.0398 239.922 25.5341C239.675 25.0284 239.551 24.4375 239.551 23.7614C239.551 23.0795 239.675 22.4844 239.922 21.9759C240.172 21.4673 240.518 21.0724 240.962 20.7912C241.408 20.5099 241.926 20.3693 242.517 20.3693C243.108 20.3693 243.625 20.5099 244.068 20.7912C244.514 21.0724 244.861 21.4673 245.108 21.9759C245.358 22.4844 245.483 23.0795 245.483 23.7614C245.483 24.4375 245.358 25.0284 245.108 25.5341C244.861 26.0398 244.514 26.4332 244.068 26.7145C243.625 26.9957 243.108 27.1364 242.517 27.1364ZM242.517 26.233C242.966 26.233 243.335 26.1179 243.625 25.8878C243.915 25.6577 244.129 25.3551 244.268 24.9801C244.408 24.6051 244.477 24.1989 244.477 23.7614C244.477 23.3239 244.408 22.9162 244.268 22.5384C244.129 22.1605 243.915 21.8551 243.625 21.6222C243.335 21.3892 242.966 21.2727 242.517 21.2727C242.068 21.2727 241.699 21.3892 241.409 21.6222C241.119 21.8551 240.905 22.1605 240.766 22.5384C240.626 22.9162 240.557 23.3239 240.557 23.7614C240.557 24.1989 240.626 24.6051 240.766 24.9801C240.905 25.3551 241.119 25.6577 241.409 25.8878C241.699 26.1179 242.068 26.233 242.517 26.233ZM251.399 23.267V24.2045H247.785V23.267H251.399ZM248.024 20.4545V27H247.018V20.4545H248.024ZM252.166 20.4545V27H251.16V20.4545H252.166ZM254.872 22.8239H256.747C257.514 22.8239 258.1 23.0185 258.507 23.4077C258.913 23.7969 259.116 24.2898 259.116 24.8864C259.116 25.2784 259.025 25.6349 258.843 25.956C258.662 26.2741 258.395 26.5284 258.042 26.7188C257.69 26.9062 257.258 27 256.747 27H254.002V20.4545H255.008V26.0625H256.747C257.145 26.0625 257.471 25.9574 257.727 25.7472C257.983 25.5369 258.11 25.267 258.11 24.9375C258.11 24.5909 257.983 24.3082 257.727 24.0895C257.471 23.8707 257.145 23.7614 256.747 23.7614H254.872V22.8239ZM260.156 27V20.4545H261.162V27H260.156ZM263.735 27.0682C263.525 27.0682 263.345 26.9929 263.194 26.8423C263.044 26.6918 262.968 26.5114 262.968 26.3011C262.968 26.0909 263.044 25.9105 263.194 25.7599C263.345 25.6094 263.525 25.5341 263.735 25.5341C263.946 25.5341 264.126 25.6094 264.277 25.7599C264.427 25.9105 264.502 26.0909 264.502 26.3011C264.502 26.4403 264.467 26.5682 264.396 26.6847C264.328 26.8011 264.235 26.8949 264.119 26.9659C264.005 27.0341 263.877 27.0682 263.735 27.0682Z" fill="white"/>
</svg>
