<svg width="80" height="310" viewBox="0 0 80 310" fill="none" xmlns="http://www.w3.org/2000/svg">
<path fill-rule="evenodd" clip-rule="evenodd" d="M22.842 85.0399H36.1452C12.9028 18.9933 31.0988 10.4895 36.1452 24.0186C39.983 34.3075 39.664 113.905 38.013 149.984H27.6191C23.2009 149.984 19.6191 153.566 19.6191 157.984V159.659C19.6191 164.057 23.1679 167.626 27.558 167.659H26.6305V349.23H58.6325V167.659H58.0071C62.3972 167.626 65.9459 164.057 65.9459 159.659V157.984C65.9459 153.566 62.3642 149.984 57.9459 149.984H50.357C51.4408 16.4569 51.112 0.548867 32.6282 0.548828C16.5611 0.548794 18.8911 31.2714 21.4381 64.8551C21.9453 71.5432 22.4612 78.3449 22.842 85.0399Z" fill="#F5E79B"/>
<path fill-rule="evenodd" clip-rule="evenodd" d="M27.6191 149.879C23.2009 149.879 19.6191 153.461 19.6191 157.879V159.554C19.6191 163.952 23.1677 167.521 27.5577 167.554H26.6305V349.125H58.6325V167.554H58.0073C62.3973 167.521 65.9459 163.952 65.9459 159.554V157.879C65.9459 153.461 62.3642 149.879 57.9459 149.879H27.6191Z" fill="#FFD600"/>
<path d="M52.1951 164.877C70.7757 160.263 45.0782 136.219 45.0782 136.219C45.0782 136.219 33.6146 169.491 52.1951 164.877Z" fill="#47FFF4"/>
<path d="M30.9777 187.601C49.7838 191.188 36.5087 158.596 36.5087 158.596C36.5087 158.596 12.1716 184.015 30.9777 187.601Z" fill="#47FFF4"/>
<path d="M65.0513 207.566C87.0316 196.792 48.4349 173.664 48.4349 173.664C48.4349 173.664 43.0709 218.339 65.0513 207.566Z" fill="#47FFF4"/>
<path d="M31.8265 238.813C61.6207 243.954 39.7551 192.86 39.7551 192.86C39.7551 192.86 2.03222 233.672 31.8265 238.813Z" fill="#47FFF4"/>
<path d="M31.404 153.61C40.1806 156.243 35.4645 140.073 35.4645 140.073C35.4645 140.073 22.6273 150.977 31.404 153.61Z" fill="#47FFF4"/>
<path d="M25.7126 129.474C34.4892 132.107 29.7731 115.938 29.7731 115.938C29.7731 115.938 16.9359 126.842 25.7126 129.474Z" fill="#47FFF4"/>
<path d="M29.609 108.698C38.3857 111.331 33.6696 95.1614 33.6696 95.1614C33.6696 95.1614 20.8324 106.065 29.609 108.698Z" fill="#47FFF4"/>
<path d="M45.1279 116.601C53.1369 112.149 38.262 104.248 38.262 104.248C38.262 104.248 37.119 121.052 45.1279 116.601Z" fill="#47FFF4"/>
<path d="M41.2451 99.6812C50.3616 98.7593 39.8231 85.6203 39.8231 85.6203C39.8231 85.6203 32.1286 100.603 41.2451 99.6812Z" fill="#47FFF4"/>
<path d="M45.083 131.653C53.092 127.202 38.2171 119.301 38.2171 119.301C38.2171 119.301 37.074 136.105 45.083 131.653Z" fill="#47FFF4"/>
</svg>