<svg width="47" height="310" viewBox="0 0 47 310" fill="none" xmlns="http://www.w3.org/2000/svg">
<path fill-rule="evenodd" clip-rule="evenodd" d="M3.84204 85.0394H17.1452C-6.09715 18.9928 12.0988 10.489 17.1452 24.0181C20.983 34.307 20.664 113.904 19.013 149.983H8.61914C4.20086 149.983 0.619141 153.565 0.619141 157.983V159.658C0.619141 164.056 4.16786 167.625 8.55798 167.658H7.63047V349.23H39.6325V167.658H39.0071C43.3972 167.625 46.9459 164.056 46.9459 159.658V157.983C46.9459 153.565 43.3642 149.983 38.9459 149.983H31.357C32.4408 16.4565 32.112 0.548379 13.6282 0.54834C-2.43894 0.548306 -0.10891 31.2709 2.43811 64.8546C2.94535 71.5427 3.46119 78.3444 3.84204 85.0394Z" fill="#F5E79B"/>
<path fill-rule="evenodd" clip-rule="evenodd" d="M8.61914 149.878C4.20086 149.878 0.619141 153.46 0.619141 157.878V159.554C0.619141 163.951 4.16772 167.52 8.55773 167.553H7.63047V349.125H39.6325V167.553H39.0073C43.3973 167.52 46.9459 163.951 46.9459 159.554V157.878C46.9459 153.46 43.3642 149.878 38.9459 149.878H8.61914Z" fill="#FFD600"/>
</svg>