<svg width="52" height="48" viewBox="0 0 52 48" fill="none" xmlns="http://www.w3.org/2000/svg">
<path fill-rule="evenodd" clip-rule="evenodd" d="M47.3308 27.2056C50.2158 24.3217 52.0002 20.337 52.0002 15.9355C52.0002 7.13456 44.8657 0 36.0648 0C30.2616 0 25.1829 3.10202 22.3964 7.73836C20.4216 6.86144 18.2355 6.37418 15.9355 6.37418C7.13456 6.37418 0 13.5087 0 22.3097C0 31.1106 7.13456 38.2451 15.9355 38.2451C16.4535 38.2451 16.9657 38.2204 17.4711 38.1721C19.9515 43.7496 25.541 47.6387 32.0388 47.6387C40.8397 47.6387 47.9743 40.5041 47.9743 31.7032C47.9743 30.1413 47.7496 28.632 47.3308 27.2056Z" fill="#FF8686"/>
</svg>
