<svg width="209" height="470" viewBox="0 0 209 470" fill="none" xmlns="http://www.w3.org/2000/svg">
<path d="M110.652 127.909L47 48L99.6523 132.415V279.909H110.652V127.909Z" fill="#F5E79B"/>
<path d="M90.2695 270.201C85.8513 270.201 82.2695 273.783 82.2695 278.201V279.876C82.2695 284.274 85.8181 287.843 90.2081 287.876H89.2809V469.447H121.283V287.876H120.658C125.048 287.843 128.596 284.274 128.596 279.876V278.201C128.596 273.783 125.015 270.201 120.596 270.201H90.2695Z" fill="#FFD600"/>
<path d="M3.22245 204.491H16.5256C-6.71675 138.444 11.4792 129.941 16.5256 143.47C21.4477 156.666 19.5323 283.869 16.7387 287.049H16.5256C16.5971 287.131 16.6682 287.13 16.7387 287.049H30.5933C31.8165 137.285 32.2756 120 13.0087 120C-6.2583 120 0.929188 164.178 3.22245 204.491Z" fill="#F5E79B"/>
<path d="M10 269.435C5.58172 269.435 2 273.016 2 277.435V279.11C2 283.508 5.54872 287.077 9.93884 287.109H9.01133V468.681H41.0134V287.109H40.3879C44.7781 287.077 48.3268 283.508 48.3268 279.11V277.435C48.3268 273.016 44.7451 269.435 40.3268 269.435H10Z" fill="#FFD600"/>
<path d="M170.562 269.971C166.144 269.971 162.562 273.552 162.562 277.971V279.646C162.562 284.044 166.111 287.613 170.501 287.646H169.574V469.217H201.576V287.646H200.951C205.341 287.613 208.889 284.044 208.889 279.646V277.971C208.889 273.552 205.308 269.971 200.889 269.971H170.562Z" fill="#FFD600"/>
<path d="M101.289 0L89 9.36084L176.889 124.733V272H192.889V121L101.289 0Z" fill="#F5E79B"/>
</svg>
